<svg xmlns="http://www.w3.org/2000/svg" version="1.1" xmlns:xlink="http://www.w3.org/1999/xlink" xmlns:svgjs="http://svgjs.com/svgjs" width="1178" height="807"><svg xmlns="http://www.w3.org/2000/svg" width="1178" height="807" viewBox="0 0 1178 807" version="1.1"><path d="M 247.750 144.723 C 249.537 144.945, 252.463 144.945, 254.250 144.723 C 256.038 144.502, 254.575 144.320, 251 144.320 C 247.425 144.320, 245.963 144.502, 247.750 144.723 M 53 471.491 L 53 761.104 154.750 760.708 C 242.122 760.368, 258.326 760.077, 269.422 758.650 C 329.070 750.980, 372.106 736.521, 409 711.756 C 423.438 702.065, 431.549 695.232, 445.077 681.366 C 484.402 641.059, 506.797 588.092, 515.009 515.966 C 518.464 485.629, 518.033 437.912, 514.024 406.685 C 505.323 338.922, 481.728 287.198, 442.707 250.348 C 403.920 213.720, 352.408 192.695, 281 184.346 C 268.464 182.880, 252.039 182.598, 159.750 182.264 L 53 181.878 53 471.491 M 102 471.069 L 102 717.138 175.250 716.735 C 255.376 716.295, 261.139 715.958, 291.500 709.936 C 374.019 693.570, 424.793 650.853, 448.902 577.511 C 457.727 550.664, 462.189 524.218, 464.174 487.007 C 465.552 461.172, 464.332 430.195, 461.014 406.775 C 445.971 300.589, 389.491 243.823, 284.116 228.982 C 262.481 225.935, 235.574 225.029, 166.250 225.014 L 102 225 102 471.069 M 422.402 465 C 422.402 473.525, 422.556 477.012, 422.743 472.750 C 422.931 468.488, 422.931 461.512, 422.743 457.250 C 422.556 452.988, 422.402 456.475, 422.402 465" stroke="none" fill="#ffc000" fill-rule="evenodd"></path><path d="M 477 11.563 C 477 12.106, 521.636 157.107, 655.832 592.500 L 718.708 796.500 819.594 796.500 L 920.481 796.500 1042.505 407.500 C 1109.618 193.550, 1165.045 16.805, 1165.676 14.734 L 1166.823 10.968 1140.321 11.234 L 1113.819 11.500 1002.417 370.500 C 941.146 567.950, 889.424 734.563, 887.479 740.750 L 883.942 752 819.572 752 L 755.202 752 753.139 745.250 C 752.005 741.538, 701.241 574.813, 640.330 374.750 L 529.583 11 503.292 11 C 488.831 11, 477 11.254, 477 11.563 M 600.531 51.734 C 623.423 127.664, 789.213 678.429, 792.284 688.750 L 795.333 699 819.416 698.982 L 843.500 698.964 948.935 356.232 C 1006.924 167.729, 1054.559 12.938, 1054.792 12.250 C 1055.122 11.271, 1049.451 11, 1028.607 11 C 1013.973 11, 1002 11.248, 1002 11.552 C 1002 11.856, 967.991 126.268, 926.425 265.802 C 833.802 576.732, 834.015 575.988, 822.889 625.750 C 821.629 631.388, 820.088 636, 819.466 636 C 818.803 636, 816.144 626.158, 813.055 612.274 C 806.786 584.096, 801.228 563.123, 789.135 522 C 781.461 495.904, 726.576 306.320, 659.727 75 L 641.376 11.500 614.808 11.234 L 588.240 10.968 600.531 51.734 M 11.584 144.750 C 11.263 145.071, 11 292.408, 11 472.167 L 11 799 117.750 798.991 C 176.463 798.986, 233.050 798.538, 243.500 797.996 C 425.528 788.551, 534.070 693.396, 554.905 525 C 558.148 498.786, 559.129 451.234, 557.001 423.352 C 551.470 350.865, 530.183 290.477, 494.618 246.382 C 443.560 183.077, 359.181 147.689, 254 145.468 C 218.956 144.728, 12.218 144.115, 11.584 144.750 M 53.248 471.700 L 53.500 761.500 134 761.790 C 215.484 762.084, 246.194 761.341, 271 758.475 C 327.104 751.992, 371.868 736.876, 409.500 711.706 C 441.456 690.332, 468.272 659.659, 485.741 624.500 C 507.780 580.146, 519.538 516.824, 517.629 452.778 C 514.800 357.860, 489.253 291.597, 437.718 245.511 C 400.790 212.487, 349.842 192.365, 282.846 184.342 C 270.319 182.842, 254.836 182.578, 160.748 182.263 L 52.997 181.901 53.248 471.700 M 102 471.032 L 102 717 164.750 716.990 C 242.795 716.978, 262.588 715.750, 295.991 708.846 C 353.075 697.048, 397.531 669.284, 424.388 628.659 C 443.773 599.337, 455.927 563.381, 461.485 518.913 C 463.933 499.335, 465.039 465.475, 463.960 443.200 C 457.571 311.331, 399.130 243.621, 278.627 228.471 C 262.557 226.450, 249.809 226.107, 169.750 225.542 L 102 225.064 102 471.032 M 143 471.924 L 143 681 179.750 680.972 C 236.108 680.928, 263.159 679.039, 288.897 673.352 C 329.502 664.380, 356.056 650.168, 377.575 625.892 C 407.011 592.686, 420.903 547.262, 422.653 478.500 C 424.041 423.960, 416.972 380.516, 401.499 348.500 C 377.850 299.566, 340.124 275.162, 273 265.378 C 263.583 264.006, 250.767 263.624, 202.250 263.275 L 143 262.847 143 471.924" stroke="none" fill="#3f007e" fill-rule="evenodd"></path><path d="M 530.353 13.235 C 530.671 14.481, 581.138 180.425, 642.502 382 C 703.866 583.575, 754.312 749.288, 754.604 750.250 C 755.102 751.893, 759.071 752, 819.538 752 L 883.942 752 887.479 740.750 C 889.424 734.563, 941.147 567.950, 1002.418 370.500 L 1113.820 11.500 1084.729 11.235 C 1066.238 11.066, 1055.430 11.331, 1055.069 11.962 C 1054.756 12.508, 1007.025 167.307, 949 355.960 L 843.500 698.964 819.434 698.982 L 795.368 699 720.639 450.750 C 679.538 314.212, 632.978 159.525, 617.173 107 L 588.435 11.500 559.105 11.235 L 529.776 10.969 530.353 13.235 M 112.750 144.750 C 137.088 144.899, 176.913 144.899, 201.250 144.750 C 225.588 144.601, 205.675 144.479, 157 144.479 C 108.325 144.479, 88.413 144.601, 112.750 144.750 M 166.819 225.749 C 180.195 225.907, 201.795 225.907, 214.819 225.749 C 227.844 225.591, 216.900 225.462, 190.500 225.462 C 164.100 225.463, 153.444 225.592, 166.819 225.749 M 558.349 454 C 558.349 458.675, 558.522 460.587, 558.732 458.250 C 558.943 455.913, 558.943 452.087, 558.732 449.750 C 558.522 447.413, 558.349 449.325, 558.349 454 M 558.343 471.500 C 558.346 475.900, 558.522 477.576, 558.733 475.224 C 558.945 472.872, 558.942 469.272, 558.727 467.224 C 558.512 465.176, 558.339 467.100, 558.343 471.500 M 443 683.500 C 438.903 687.625, 435.775 691, 436.050 691 C 436.325 691, 439.903 687.625, 444 683.500 C 448.097 679.375, 451.225 676, 450.950 676 C 450.675 676, 447.097 679.375, 443 683.500 M 162.750 680.749 C 173.888 680.910, 192.113 680.910, 203.250 680.749 C 214.388 680.588, 205.275 680.456, 183 680.456 C 160.725 680.456, 151.613 680.588, 162.750 680.749 M 97.325 761.750 C 121.429 761.899, 160.579 761.899, 184.325 761.750 C 208.071 761.600, 188.350 761.478, 140.500 761.478 C 92.650 761.478, 73.221 761.601, 97.325 761.750" stroke="none" fill="#ff3399" fill-rule="evenodd"></path></svg><style>@media (prefers-color-scheme: light) { :root { filter: none; } }
</style></svg>